<svg width="495" height="499" viewBox="0 0 495 499" fill="none" xmlns="http://www.w3.org/2000/svg">
<g filter="url(#filter0_ddii_8_108)">
<path d="M249.002 292.119C184.758 332.232 117.327 313.786 72.216 241.538C27.202 169.446 40.5349 100.57 104.473 60.6478C153.295 30.1638 209.394 35.2444 245.148 73.5168C250.294 79.0255 248.581 87.6742 242.187 91.6668L218.484 106.466C213.051 109.859 206.038 108.668 201.159 104.518C180.239 86.7254 152.462 84.5545 128.674 99.4072C93.7988 121.183 89.803 164.835 119.232 211.966C149.047 259.718 189.62 275.326 224.954 253.264C249.13 238.168 259.419 214.103 253.469 188.323C252.059 182.214 254.102 175.591 259.42 172.27L282.978 157.561C289.52 153.476 298.238 155.949 300.789 163.228C317.932 212.135 298.643 261.123 249.002 292.119Z" fill="#4F35E5"/>
<path d="M104.208 60.2236C153.203 29.6316 209.573 34.7041 245.513 73.1757C250.903 78.9458 249.075 87.9549 242.452 92.0904L218.749 106.891C213.093 110.421 205.843 109.159 200.834 104.899C180.081 87.248 152.542 85.0936 128.939 99.8312C111.635 110.635 102.004 126.851 100.337 146.221C98.6695 165.609 104.98 188.198 119.656 211.702C134.527 235.518 152.049 251.267 170.205 258.33C188.343 265.385 207.154 263.788 224.689 252.839C248.697 237.849 258.88 213.993 252.982 188.434C251.534 182.162 253.621 175.302 259.156 171.846L282.713 157.137C289.49 152.906 298.59 155.442 301.261 163.063C318.493 212.224 299.075 261.444 249.267 292.543C217.045 312.663 183.981 318.118 153.298 309.445C122.622 300.775 94.3952 278.003 71.792 241.803C49.2367 205.679 41.2692 170.312 46.9956 138.94C52.7233 107.56 72.1385 80.2477 104.208 60.2236Z" stroke="black" stroke-opacity="0.31"/>
<path d="M357.939 456.5C352.562 454.679 348.989 449.579 349.113 443.903L350.214 393.606C350.338 387.931 346.765 382.831 341.388 381.009L268.566 356.338C263.19 354.516 257.253 356.394 253.902 360.977L224.205 401.586C220.854 406.168 214.917 408.046 209.54 406.225L180.314 396.323C171.844 393.454 168.733 383.088 174.224 376.029L334.701 169.725C338.099 165.357 343.891 163.619 349.133 165.395L395.268 181.024C400.507 182.799 404.05 187.696 404.096 193.228L406.297 454.644C406.372 463.59 397.599 469.937 389.126 467.066L357.939 456.5ZM354.553 222.34C354.18 222.213 353.768 222.344 353.536 222.662L295.328 302.45C290.157 309.538 293.349 319.609 301.659 322.424L335.724 333.965C344.034 336.78 352.689 330.723 352.891 321.951L355.166 223.214C355.175 222.82 354.927 222.466 354.553 222.34Z" fill="#4F35E5"/>
<path d="M395.429 180.551C400.869 182.394 404.548 187.479 404.596 193.223L406.796 454.64C406.874 463.93 397.764 470.521 388.965 467.54L357.778 456.974C352.195 455.083 348.484 449.786 348.613 443.893L349.714 393.595C349.833 388.138 346.398 383.234 341.228 381.482L268.406 356.811C263.236 355.06 257.527 356.866 254.305 361.272L224.608 401.881C221.128 406.64 214.962 408.59 209.379 406.699L180.153 396.797C171.357 393.817 168.127 383.052 173.829 375.722L334.306 169.418C337.835 164.881 343.85 163.077 349.294 164.921L395.429 180.551ZM354.394 222.813C354.227 222.757 354.043 222.815 353.939 222.957L295.732 302.744C290.759 309.56 293.829 319.243 301.82 321.95L335.884 333.491C343.874 336.198 352.197 330.374 352.392 321.94L354.666 223.203C354.67 223.028 354.56 222.869 354.394 222.813Z" stroke="black" stroke-opacity="0.31"/>
</g>
<defs>
<filter id="filter0_ddii_8_108" x="11.8076" y="13.9607" width="431.589" height="484.904" filterUnits="userSpaceOnUse" color-interpolation-filters="sRGB">
<feFlood flood-opacity="0" result="BackgroundImageFix"/>
<feColorMatrix in="SourceAlpha" type="matrix" values="0 0 0 0 0 0 0 0 0 0 0 0 0 0 0 0 0 0 127 0" result="hardAlpha"/>
<feMorphology radius="4" operator="dilate" in="SourceAlpha" result="effect1_dropShadow_8_108"/>
<feOffset dx="-9" dy="-2"/>
<feGaussianBlur stdDeviation="9.95"/>
<feComposite in2="hardAlpha" operator="out"/>
<feColorMatrix type="matrix" values="0 0 0 0 1 0 0 0 0 1 0 0 0 0 1 0 0 0 0.19 0"/>
<feBlend mode="normal" in2="BackgroundImageFix" result="effect1_dropShadow_8_108"/>
<feColorMatrix in="SourceAlpha" type="matrix" values="0 0 0 0 0 0 0 0 0 0 0 0 0 0 0 0 0 0 127 0" result="hardAlpha"/>
<feOffset dx="13" dy="7"/>
<feGaussianBlur stdDeviation="11.55"/>
<feComposite in2="hardAlpha" operator="out"/>
<feColorMatrix type="matrix" values="0 0 0 0 0.0865385 0 0 0 0 0.0865385 0 0 0 0 0.0865385 0 0 0 1 0"/>
<feBlend mode="normal" in2="effect1_dropShadow_8_108" result="effect2_dropShadow_8_108"/>
<feBlend mode="normal" in="SourceGraphic" in2="effect2_dropShadow_8_108" result="shape"/>
<feColorMatrix in="SourceAlpha" type="matrix" values="0 0 0 0 0 0 0 0 0 0 0 0 0 0 0 0 0 0 127 0" result="hardAlpha"/>
<feOffset dx="9" dy="-3"/>
<feGaussianBlur stdDeviation="16.75"/>
<feComposite in2="hardAlpha" operator="arithmetic" k2="-1" k3="1"/>
<feColorMatrix type="matrix" values="0 0 0 0 0.899038 0 0 0 0 0.339949 0 0 0 0 0.0389007 0 0 0 1 0"/>
<feBlend mode="normal" in2="shape" result="effect3_innerShadow_8_108"/>
<feColorMatrix in="SourceAlpha" type="matrix" values="0 0 0 0 0 0 0 0 0 0 0 0 0 0 0 0 0 0 127 0" result="hardAlpha"/>
<feOffset dx="-6" dy="-5"/>
<feGaussianBlur stdDeviation="6.85"/>
<feComposite in2="hardAlpha" operator="arithmetic" k2="-1" k3="1"/>
<feColorMatrix type="matrix" values="0 0 0 0 0 0 0 0 0 0 0 0 0 0 0 0 0 0 1 0"/>
<feBlend mode="normal" in2="effect3_innerShadow_8_108" result="effect4_innerShadow_8_108"/>
</filter>
</defs>
</svg>
