<svg width="929" height="744" viewBox="0 0 929 744" fill="none" xmlns="http://www.w3.org/2000/svg">
<path d="M261.122 2C387.646 2.00009 485.37 80.2902 500.402 197.045C501.529 205.794 494.518 213.191 485.852 213.191H400.246C392.823 213.191 386.689 207.77 385.063 200.706C371.154 140.262 322.789 101.392 261.122 101.392C218.838 101.392 184.136 119.314 159.948 151.532C135.718 183.807 121.949 230.561 121.949 288.268C121.949 346.748 135.534 393.787 159.715 426.152C183.849 458.455 218.64 476.289 261.498 476.289C324.292 476.289 370.329 441.105 385.231 383.053C386.996 376.179 393.049 370.977 400.314 370.977H485.749C494.618 370.977 501.686 378.708 500.264 387.61C491.035 445.357 463.502 492.415 422.081 525.021C380.672 557.617 325.502 575.681 261.122 575.681C181.593 575.681 116.741 548.7 71.7881 499.188C26.856 449.699 2 377.915 2 288.649C2.00004 199.57 27.0467 127.882 72.0723 78.4424C117.117 28.9816 181.967 2 261.122 2Z" fill="white" stroke="#171717" stroke-width="4"/>
<path d="M723.459 172C729.849 172 735.537 176.048 737.631 182.085L924.904 722.085C928.284 731.83 921.047 742 910.732 742H813.034C806.477 742 800.68 737.741 798.72 731.484L761.419 612.428C759.981 607.839 755.73 604.717 750.922 604.717H571.777C566.969 604.717 562.718 607.839 561.28 612.428L523.979 731.484C522.018 737.741 516.222 742 509.665 742H416.256C405.945 742 398.709 731.837 402.081 722.094L588.981 182.094C591.073 176.052 596.763 172 603.156 172H723.459ZM594.817 497.794C592.607 504.876 597.898 512.07 605.317 512.07H717.381C724.8 512.07 730.092 504.876 727.882 497.794L661.35 284.585L594.817 497.794Z" fill="white" stroke="#171717" stroke-width="4"/>
</svg>
