<svg width="705" height="2843" viewBox="0 0 705 2843" fill="none" xmlns="http://www.w3.org/2000/svg">
<path d="M97.146 126.024C96.2595 127.9 91.2945 134.669 89.475 137.818C89.3547 132.88 100.356 119.197 97.146 126.024ZM213.603 470.125C212.098 468.265 210.613 466.4 209.148 464.528C211.144 470.709 215.142 478.676 217.214 484.613C217.549 485.588 214.686 483.979 215.631 486.22C216.411 488.057 218.01 487.36 219.534 488.73C219.873 489.032 220.207 489.435 220.528 489.986C222.429 493.47 228.783 509.773 232.132 515.42C244.047 536.188 260.201 558.66 274.198 582.262C257.204 559.549 270.965 584.527 276.097 590.82C277.264 592.23 281.095 589.277 295.956 614.076C305.433 629.831 290.192 619.462 310.161 643.248C301.17 620.867 313.698 640.398 324.145 655.79C324.701 656.608 326.394 659.267 328.735 662.936C333.731 670.782 341.832 683.462 346.303 689.886C348.536 693.095 354.041 696.734 356.96 700.983C358.974 703.917 359.404 707.076 362.376 711.395C376.449 731.888 390.18 752.243 403.661 773.324C390.071 764.775 407.683 784.405 408.07 785.557C409.881 791.491 394.545 769.387 399.519 778.864C407.916 791.098 416.382 803.454 424.772 815.723C418.674 805.081 438.333 826.151 439.444 831.73C443.015 826.559 472.733 891.282 480.198 899.226C481.762 900.877 476.158 887.043 493.634 916.185C495.519 919.342 493.293 919.134 494.482 920.658C495.187 921.559 503.691 924.414 505.166 932.328C505.708 935.239 493.16 922.565 515.21 953.91C511.718 938.009 546.561 996.904 552.093 1008.47C551.367 1005.9 550.688 1003.41 549.975 1000.87C554.905 1012.47 557.782 1013.44 559.181 1015.85C564.884 1025.67 571.58 1040.04 577.296 1048.94C584.056 1059.49 587.081 1057.67 593.5 1070.82C592.382 1067.48 591.24 1064.13 590.074 1060.74C595.199 1069.45 600.274 1078.17 605.364 1087.03C589.229 1069.26 607.814 1091.51 608.835 1093.08C610.367 1095.36 607.27 1093.27 608.872 1096.12C609.022 1096.39 609.21 1096.69 609.443 1097.05C609.739 1097.48 610.937 1095.95 615.083 1102.59C623.752 1116.57 620.396 1115.37 623.927 1121.44C624.241 1121.98 624.599 1119.28 630.819 1129.48C650.682 1162.63 629.711 1129.91 628.722 1128.74C627.471 1127.21 628.188 1141.87 614.156 1112.75C618.909 1122.45 616.832 1124.9 617.387 1126.01C617.888 1126.95 627.517 1143.16 628.064 1143.99C633.526 1151.77 631.301 1143.51 632.511 1144.95C633.512 1146.05 642.165 1167.66 650.095 1169.72C650.28 1182.51 642.558 1166.09 632.992 1150.48C630.678 1148.62 639.322 1167.01 639.84 1168.08C652.097 1191.67 649.424 1176.44 654.801 1180.36C657.646 1182.51 659.642 1193.76 658.885 1182.79C670.266 1205.03 661.396 1192.47 661.807 1194.08C662.386 1196.47 667.251 1204.01 667.583 1205.15C668.065 1206.76 664.327 1202.09 666.603 1208.29C666.984 1209.3 673.587 1217.85 669.068 1204.99C676.266 1221.75 677.565 1219.85 676.055 1227.28C688.537 1236.48 675.174 1238 676.601 1242.97C680.342 1256.59 684.9 1250.78 685.463 1251.35C689.491 1254.95 699.016 1297.68 700.771 1309.11C695.996 1305.42 693.765 1274.19 690.708 1268.41C681.817 1248.06 696.671 1299.29 686.853 1285.09C690.002 1291.32 692.976 1297.82 695.716 1304.46C693.832 1317.44 690.546 1300.79 695.24 1332.78C699.054 1337.9 692.348 1310.04 695.397 1315.32C697.505 1318.78 699.503 1337.36 700.19 1337.35C701.245 1337.86 698.633 1321.24 700.272 1323.68C701.452 1325.42 702.564 1332.94 703.003 1339.93C703.962 1355.48 702.683 1373.34 700.299 1343.44C701.009 1355.48 694.97 1361.96 696.843 1372.78C697.673 1380.27 708.13 1338.83 703.77 1400.99C700.962 1401.98 704.402 1375.92 703.965 1375.35C703.659 1374.43 696.975 1378.91 696.62 1379.68C696.885 1381.66 692.862 1446.86 683.715 1459.56C687.506 1456.5 679.12 1482.34 671.311 1498.46C668.218 1505.19 665.63 1510.31 665.175 1511.98C664.768 1513.54 669.455 1509.32 668.937 1510.93C665.741 1521.42 648.559 1542.84 641.818 1552.41C634.314 1563.41 636.854 1563.05 636.445 1563.69C633.019 1568.36 634.562 1563.8 632.531 1566.67C629.575 1571.36 607.528 1599.04 606.548 1600.3C606.285 1600.75 611.701 1597.85 607.177 1603.97C606.368 1604.96 604.909 1602.86 591.224 1620.16C574.614 1640.77 606.018 1608.66 600.837 1618.73C586.426 1628.91 589.778 1631.02 586.433 1634.23C585.648 1634.97 580.597 1638.11 574.762 1642.85C571.939 1645.14 568.936 1647.81 566.137 1650.78C568.669 1647.84 571.2 1644.87 573.729 1641.86C577.067 1637.9 580.39 1633.88 583.694 1629.82C580.742 1632.63 576.811 1636.86 572.86 1641.04C568.037 1646.15 563.204 1651.17 560.151 1653.73C557.44 1655.99 557.47 1651.97 552.165 1657.4C551.054 1658.52 551.365 1668.05 563.289 1651.6C566.172 1652.17 558.307 1657.89 555.691 1661.47C555.299 1662.01 556.325 1666.79 550.563 1668.89C549.202 1669.28 551.028 1651.01 530.634 1682.76C529.979 1683.77 533.964 1682.03 533.35 1683.04C532.921 1683.75 525.807 1689.72 525.225 1690.56C524.628 1691.44 528.979 1689.56 528.303 1690.65C524.84 1696.24 514.384 1697.22 524.16 1688.61C520.443 1691.04 516.745 1693.45 513.076 1695.82C519.782 1696.2 509.107 1701.47 504.995 1705.58C478.939 1731.69 499.036 1716.97 495.588 1722.52C490.274 1731.3 489.808 1720.08 481.206 1731.97C480.582 1732.99 494.775 1723.71 470.182 1745.5C473.389 1742.03 476.719 1738.5 480.143 1734.93C476.253 1733.95 471.528 1741.04 469.143 1745.26C468.303 1746.79 467.748 1747.95 467.565 1748.17C460.104 1757.07 464.023 1750.09 454.478 1764.6C453.638 1765.91 450.582 1767.69 448.931 1770.61C442.113 1782.59 461.563 1757.78 463.759 1758.65C464.473 1758.76 442.736 1784.38 441.938 1785.29C437.328 1787.98 450.669 1772.67 446.403 1774.19C444.303 1774.32 417.502 1815.01 412.254 1823.65C405.512 1832.97 397.427 1834.69 403.718 1838.15C395.931 1837.69 398.81 1842.6 398.086 1843.89C389.244 1859.83 389.209 1859.92 383.278 1874.73C381.984 1878.02 378.835 1879.93 378.67 1881.24C378.586 1882 381.227 1881.64 380.487 1885.22C380.022 1887.42 377.108 1893.84 373.911 1900.67C370.374 1907.92 366.697 1915.82 365.693 1916.65C363.839 1918.1 368.709 1905.98 366.006 1907.5C362.638 1916.37 360.477 1925.31 357.872 1934.7C356.797 1938.6 355.883 1936.24 355.438 1937.94C355.173 1938.64 353.453 1952.78 354.159 1952.31C355.024 1950.79 365.518 1909.32 365.014 1920.94C364.84 1923.1 359.53 1929.55 363.809 1929.47C353.548 1963.4 348.809 2000.97 348.512 2040.54C348.469 2041.67 348.462 2042.67 348.48 2043.57C348.073 2042.71 347.756 2041.72 347.533 2040.55C345.494 2018.32 348.819 1994.75 351.457 1973.59C351.816 1970.29 353.971 1959.49 351.733 1960.47C347.677 1980.33 346.683 2006.36 345.194 2027C345.141 2027.67 343.311 2025.21 342.989 2027.69C342.667 2030.16 343.359 2035.63 344.047 2040.6C344.613 2042.61 345.211 2043.94 344.892 2044.41C344.708 2044.71 342.046 2041.35 340.555 2042.48C336.75 2045.79 345.661 2045.48 345.855 2047.23C345.962 2047.99 345.321 2050.74 346.195 2055.1C346.971 2059.36 349.705 2065.47 352.267 2067.23C355.015 2069.13 353.162 2065.16 351.688 2061.44C350.155 2057.65 349.244 2054.48 350.533 2054.54C354.251 2059.75 358.59 2068.72 364.701 2078.65C367.574 2083.39 371.264 2088.88 375.488 2094.34C375.704 2094.61 375.347 2091.07 378.23 2094.47C383.334 2100.48 382.686 2103.9 384.825 2107.37C387.107 2111.06 397.42 2123.79 398.064 2126.22C398.133 2126.52 394.027 2125.43 393.652 2125.07C388.406 2120.01 389.57 2116.01 389.203 2115.46C387.835 2113.48 385.378 2112.41 384.133 2110.67C382.081 2107.8 381.84 2105.53 379.21 2101.92C377.401 2099.42 377.37 2103.16 375.675 2100.76C374.963 2099.78 372.55 2087.8 367.759 2090.26C363.149 2087.73 427.19 2173.63 434.511 2184.81C429.589 2176.26 424.524 2167.85 419.42 2159.64C429.624 2176.33 446.416 2194.49 441.954 2199.36C446.189 2206.15 450.334 2213.06 454.366 2220.08C487.835 2278.88 511.551 2339.5 528.455 2403.27C531.267 2416.18 525.682 2410.11 531.827 2430.95C531.837 2425.19 531.775 2419.41 531.647 2413.65C532.523 2418.78 535.158 2432.03 537.484 2445.68C540.225 2461.41 542.416 2477.42 543.481 2481.61C543.723 2482.61 547.664 2483.5 549.596 2495.81C551.248 2506.75 548.652 2508.8 548.743 2514.7C548.811 2519.63 550.013 2525.07 549.984 2526.54C549.957 2527.67 548.319 2528.26 548.24 2530.95C547.976 2539.47 552.21 2532.29 547.356 2541.05C547.014 2539.02 546.666 2537.01 546.308 2534.98C546.29 2545.24 544.496 2559.18 542.452 2544.34C542.082 2541.8 543.847 2543.9 543.722 2541.98C536.554 2467.14 539.806 2527.19 543.419 2553.19C541.608 2560.05 543.558 2597.64 542.847 2598.91C542.134 2600.63 540.297 2594.21 538.508 2602.57C538.539 2604.33 537.095 2654.55 534.932 2636.28C534.613 2632.51 536.335 2608.63 536.233 2602.83C531.268 2615.71 536.031 2645.89 535.751 2651.51C535.746 2651.74 535.734 2651.92 535.715 2652.06C534.941 2657.43 534.483 2654.97 534.022 2651.36C533.295 2645.87 532.518 2637.8 530.899 2651.09C530.708 2652.61 530.502 2654.37 530.269 2656.43C527.187 2681.66 533.104 2658.23 533.494 2668.19C533.921 2673.75 525.708 2702.43 530.442 2702.54C529.052 2712.84 527.625 2706.38 527.21 2707.6C526.928 2708.76 523.992 2729.23 521.1 2735.51C520.767 2736.27 518.978 2733.12 518.56 2733.89C517.91 2735.46 512.816 2754.53 512.722 2755.18C512.713 2755.72 516.223 2751.96 516.162 2753.95C516.131 2754.94 514.959 2758.82 513.681 2762.73C512.033 2767.87 509.657 2774.44 509.736 2775.23C509.963 2776.32 512.964 2768.05 515.006 2763.18C516.447 2759.78 517.79 2757.2 518.271 2758.98C517.699 2760.45 517.127 2762.05 516.582 2763.7C513.708 2772.74 509.012 2789.3 506.164 2798.27C507.031 2795.62 512.676 2782.52 514.127 2778.86C515.497 2780.38 513.729 2787.61 510.826 2794.02C507.966 2800.37 504.566 2804.95 505.96 2799.24C503.97 2806.35 507.006 2802.37 506.287 2806.72C506.141 2807.9 500.683 2817 500.041 2818.93C500.026 2819.32 507.016 2810.75 506.477 2812.97C505.698 2818.14 487.2 2841.65 485.794 2842.02C481.08 2846.01 494.239 2828.79 494.3 2825.65C494.184 2825.76 479.925 2838.41 479.687 2838.01C476.783 2837.29 491.422 2822.69 487.918 2822.73C484.235 2826.7 480.612 2830.22 477.1 2833.41C487.954 2819.99 509.744 2780.31 507.722 2773.42C504.112 2785.14 496.522 2801.44 488.913 2811.08C481.404 2820.85 475.437 2824.86 472.936 2822.77C470.824 2821.07 476.877 2810.67 475.995 2810.51C472.888 2810.76 465.013 2824.62 464.549 2824.74C464.129 2824.98 463.877 2825.04 463.767 2824.94C463.767 2824.94 463.767 2824.94 463.767 2824.94C462.63 2824.39 476.069 2806.06 476.106 2804.09C476.233 2801.86 466.108 2807.5 465.268 2806.65C465.402 2806.47 473.665 2792.12 468.949 2795.7C464.324 2799.58 456.068 2809.78 455.623 2809.86C453.241 2811.35 466.526 2792.23 466.057 2790.76C466.022 2790.43 457.075 2799.67 456.348 2799.39C455.705 2799.3 460.138 2790.95 460.353 2786.71C460.569 2783.66 455.426 2789.73 455.973 2788.42C456.79 2787.77 466.71 2769.01 466.387 2768.02C466.619 2766.53 463.185 2770.17 463.057 2769.36C462.928 2768.21 465.873 2762.62 464.96 2763.15C464.816 2763.74 448.213 2783.32 446.59 2781.69C444.844 2780.12 461.994 2761.69 441.634 2776.17C441.523 2776.28 439.174 2781.15 439.002 2781.23C435.541 2782.63 442.774 2767.56 431.235 2784.13C449.268 2751.46 430.775 2778.33 430.075 2771.12C429.959 2768.61 435.22 2756.88 434.85 2756.57C432.324 2756.85 432.124 2761.26 430.493 2761.96C429.748 2762.39 432.326 2751.15 429.841 2752.87C428.723 2753.98 423.8 2764.02 423.256 2764.23C419.663 2767.17 421.257 2761.8 419.852 2762.08C419.022 2762.24 415.251 2767.55 414.972 2767.62C414.76 2767.63 417.389 2758.94 417.158 2757.06C417.136 2755.61 413.734 2759.07 413.897 2758.13C414.953 2753.05 424.044 2744.37 413.108 2751.43C412.461 2751.83 410.78 2755.18 410.624 2755.22C407.783 2756.14 411.026 2750.27 410.019 2748.37C408.39 2745.4 405.601 2754.36 407.312 2746.59C403.034 2751.07 402.162 2752.75 397.519 2759.34C403.947 2750.4 403.297 2745.2 402.337 2742.82C401.725 2741.76 400.632 2741.98 399.252 2743.3C397.804 2744.68 396.491 2746.52 393.797 2750.31C397.221 2745.61 392.983 2744.27 393.687 2742.97C393.876 2742.6 395.686 2741.31 396.327 2739.5C396.974 2737.68 396.287 2735.96 391.25 2736.21C389.95 2736.47 389.486 2740.74 387.952 2738.56C393.081 2728.38 386.531 2738.37 386.427 2737.6C384.327 2736.33 385.507 2733.58 389.67 2721.5C394.705 2707.54 399.383 2692.83 399.969 2688.12C401.227 2678.76 398.313 2669.57 398.615 2667.5C399.604 2660.65 400.917 2666.63 401.92 2665.21C403.032 2663.82 401.211 2643.22 401.427 2642.18C402.685 2638.27 404.869 2642.55 405.033 2642.15C405.212 2641.72 405.378 2641.1 405.532 2640.32C407.235 2632.48 406.831 2608.41 407.378 2601.24C405.76 2601.48 405.134 2617.22 402.787 2607.31C399.985 2595.82 407.194 2595.25 407.537 2594.95C407.818 2554.35 404.11 2513.77 396.045 2474.71C393.598 2462.87 390.73 2451.01 387.491 2439.19C384.162 2440.82 394.999 2473.36 394.407 2474.26C392.952 2479.27 379.129 2423.33 377.518 2416.16C378.358 2421.6 379.121 2427.03 379.809 2432.45C373.061 2424.87 372.409 2403.66 365.888 2391.7C363.813 2387.85 365.023 2396.24 364.842 2396.11C361.598 2392.14 360.131 2384.41 364.336 2389.05C358.106 2378.74 361.002 2379.5 357.814 2370.97C357.644 2370.54 357.441 2374.81 354.05 2368.45C352.518 2365.45 345.414 2349.07 342.941 2347.6C341.955 2347 339.237 2358 345.168 2356.61C350.063 2375.49 350.129 2361.22 352.911 2368.22C353.279 2369.32 349.355 2368.03 357.654 2385.15C350.814 2383.89 346.873 2362.12 344.614 2359.01C340.29 2352.57 349.625 2382.75 355.882 2386.61C350.5 2385.74 356.11 2388.92 358.333 2395.64C360.74 2403 358.278 2400.29 359.647 2404.24C363.288 2415.04 364.955 2409.54 364.987 2419.41C371.077 2407.8 371.054 2434.53 370.471 2442.16C366.859 2430.83 362.893 2419.55 358.608 2408.4C358.365 2409.2 358.121 2410 357.874 2410.8C356.941 2407.81 355.985 2404.82 355.006 2401.83C355.615 2402.15 356.223 2402.47 356.831 2402.79C348.561 2388.53 350.186 2383.73 349.769 2382.46C343.99 2366.42 336.062 2348.4 328.515 2333.21C327.343 2330.98 325.59 2333.73 319.086 2316.45C316.955 2310.97 321.693 2314.66 318.165 2309.04C312.254 2306.58 311.664 2304.79 311.814 2303.24C311.901 2302.26 312.282 2301.39 311.804 2300.57C308.229 2294.52 304.553 2291.69 304.202 2291.15C299.406 2283.87 292.452 2272.9 286.515 2264.9C286.388 2264.76 287.731 2270.12 284.508 2264.5C283.446 2262.56 278.307 2240.94 264.196 2227.21C266.822 2231.56 269.352 2235.82 271.835 2240.06C269.452 2235.43 241.428 2202.69 246.038 2212.34C249.074 2218.54 262.797 2227.4 259.613 2231.86C255.544 2224.73 237.248 2203.29 218.676 2176.55C205.987 2158.34 195.534 2138.04 194.411 2134.22C194.016 2133.03 198.927 2139.2 198.359 2137.54C197.766 2136.78 186.289 2111.34 185.959 2106.87C185.54 2104.62 190.854 2116.37 191.107 2115.12C190.603 2114.72 180.918 2078.62 179.252 2076.39C181.319 2085.79 188.251 2110.76 182.609 2098.23C181.852 2096.61 180.87 2087.31 180.179 2085.23C176.91 2075.51 178.025 2085.75 181.666 2098.94C185.241 2112.23 191.779 2126.86 193.51 2130.51C182.357 2111.8 172.053 2075.05 172.541 2042.99C172.497 2031.85 172.581 2020.83 172.319 2010.84C174.461 1998.92 174.541 2028.65 176.368 2015.17C180.436 1987.24 174.175 2007.58 173.97 2006.73C172.326 1999.58 183.617 1976.36 176.461 1975.72C178.551 1965.49 179.035 1968.96 179.866 1954.24C179.119 1956.1 178.381 1957.96 177.654 1959.83C175.041 1942.88 192.213 1910.12 192.615 1913.05C193.199 1920.34 186.774 1937.46 186.676 1939.03C186.521 1941.35 192.456 1948.46 183.383 1972.11C187.056 1982.54 191.33 1933.9 191.912 1956.37C192.187 1941.35 209.065 1881.05 210.729 1871.9C210.818 1870.79 204.425 1874.14 211.763 1859.92C215.279 1853.22 209.626 1870.33 211.794 1867.43C213.411 1865.24 217.066 1855.28 222.793 1841.41C237.365 1802.69 275.063 1730.12 286.97 1714.25C287.895 1712.84 288.831 1714.2 289.737 1712.82C292.442 1708.56 301.23 1691.99 307.396 1685.14C293.722 1698.66 315.671 1668.89 322.244 1662.02C331.85 1651.37 333.379 1653.9 337.873 1649.68C342.989 1644.94 348.355 1639.03 353.997 1632.83C367.02 1618.44 380.23 1603.16 391.503 1598.28C386.817 1594.51 413.856 1581.16 422.951 1572.51C430.184 1565.65 437.515 1552.99 426.412 1560.45C436.997 1550.53 446.913 1539.54 455.765 1529.57C457.235 1527.92 458.679 1526.29 460.098 1524.7C461.747 1522.85 460.704 1526.55 463.472 1523.34C463.712 1523.03 462.818 1521.48 465.124 1518.69C483.719 1495.67 476.776 1508.78 481.261 1505.34C483.71 1503.4 485.385 1501.86 486.514 1500.66C476.329 1513.52 463.397 1528.3 459.175 1532.82C459.043 1532.96 458.92 1533.1 458.806 1533.22C458.998 1533.19 459.206 1533.14 459.427 1533.06C466.329 1530.69 484.757 1503.87 491.066 1497.26C491.307 1497.02 492.195 1499.25 492.422 1498.99C492.427 1498.99 492.431 1498.98 492.436 1498.98C495.067 1496.26 508.031 1477.78 503.179 1480.02C501.915 1480.61 495.922 1488.83 488.073 1498.7C489.866 1495.77 486.439 1496.25 486.742 1495.72C490.528 1489.41 502.759 1477.08 506.303 1472.36C507.134 1471.28 505.838 1470.51 505.962 1470.32C509.246 1466.12 511.634 1470.28 510.901 1463.33C520.719 1458.23 501.48 1478.78 505.174 1479.19C507.707 1479.52 526.956 1450.74 530.46 1436.27C532.076 1430.85 532.414 1427.08 531.35 1426.73C531.834 1426.71 532.607 1426.25 533.695 1425.09C536.296 1422.57 539.682 1408.47 539.241 1405.81C539.176 1405.37 535.131 1404.72 535.193 1404.21C535.535 1403.17 541.264 1385.9 538.879 1378.37C538.145 1382.19 537.308 1385.87 536.367 1389.43C538.001 1367.07 535.98 1370.06 534.697 1377.84C534.671 1378.22 534.5 1378.58 534.467 1378.94C533.333 1384.79 531.671 1391.64 531.325 1391.69C530.7 1391.81 531.275 1383.1 531.577 1374.37C531.945 1365.72 532.267 1357.07 534.332 1361.06C535.054 1362.37 533.162 1380.77 535.988 1371.7C536.561 1370.18 535.519 1357.84 535.718 1357.09C537.744 1352.72 540.704 1379.66 543.337 1376.38C540.868 1369.95 542.178 1361.52 541.028 1353.55C540.828 1352.15 540.379 1351.17 539.906 1350.48C539.163 1349.38 538.359 1349.02 538.317 1348.75C537.304 1342.46 539.715 1345.85 539.491 1343.8C539.421 1342.41 533.497 1332.54 539.985 1333.6C527.635 1300.37 535.083 1324.22 537.123 1346.52C534.335 1338.65 533.458 1326.85 531.263 1320.98C530.511 1318.89 528.85 1320.76 527.43 1317.28C525.814 1311.27 510.73 1269.31 504.711 1257.31C508.791 1263.83 509.884 1260.86 507.06 1255.57C504.181 1250.22 503.739 1256.14 502.914 1255.24C502.263 1254.45 490.066 1228.3 487.28 1224.3C498.714 1242.94 498.431 1237.55 489.658 1221.09C491.571 1223.18 493.449 1225.22 495.293 1227.23C489.327 1218.11 480.828 1196.21 476.614 1191.12C475.955 1190.32 476.143 1194.47 475.771 1194.02C473.775 1191.47 470.641 1185.36 467.768 1179.88C465.497 1175.51 463.494 1171.69 463.025 1171.49C462.174 1171.13 465.024 1179.05 462.772 1176.83C462.315 1176.38 460.427 1168.15 455.809 1161.77C454.08 1159.37 453.444 1161.83 452.968 1161.25C448.972 1156.36 453.578 1158.01 447.245 1148.61C442.621 1141.77 436.787 1138.01 431.631 1127.85C448.159 1161.8 432.954 1134.11 423.595 1121.36C422.1 1119.33 420.478 1122.93 413.785 1109.28C435.951 1133.33 411.612 1099.85 407.087 1092.66C406.855 1092.26 408.615 1090.96 406.412 1087.43C406.22 1087.14 405.254 1088.36 403.074 1085.14C382.437 1054.81 396.449 1073.66 393.926 1067.02C392.872 1064.22 381.437 1050.28 378.787 1046.28C378.18 1045.35 379.746 1044.96 377.361 1041.38C373.16 1035.08 368.095 1030.26 365.252 1026.12C364.926 1025.64 366.949 1024.31 361.113 1016.78C359.471 1014.66 357.113 1012.61 358.605 1016.17C363.545 1027.93 379.846 1045.82 385.581 1058.97C390.847 1070.97 368.575 1036.77 367.402 1035.02C366.973 1034.37 372.313 1040.41 368.107 1033.48C364.494 1027.54 354.119 1019.23 349.24 1010.1C348.869 1009.41 347.315 1000.56 347.694 1000.77C348.014 1000.98 355.579 1011.16 355.429 1009.06C355.409 1008.82 350.989 1002.09 351.049 1000.79C351.122 999.205 356.831 991.309 356.082 989.748C354.136 985.746 353.973 989.286 352.53 986.817C349.433 981.522 340.002 962.261 336.983 963.417C338.758 966.456 340.532 969.496 342.304 972.536C331.295 956.375 334.748 964.077 332.732 962.087C330.557 959.947 333.335 959.123 329.925 953.474C329.193 952.248 313.501 929.537 312.797 930.59C322.768 942.314 316.779 939.47 317.119 940.094C318.405 942.446 321.89 944.237 323.835 947.254C337.466 968.478 320.937 948.912 323.562 954.312C324.47 956.166 328.085 958.672 328.493 959.445C329.82 961.954 328.051 963.174 329.232 964.652C331.987 968.105 331.704 962.144 332.027 962.348C335.78 964.587 342.253 978.751 334.228 972.559C336.389 978.02 340.119 976.377 341.276 981.07C343.588 990.399 336.823 978.591 334.361 975.808C325.517 965.822 324.661 961.708 313.914 946.383C310.053 940.874 304.013 935.282 302.201 932.738C301.069 931.146 296.442 911.864 287.285 917.299C284.143 910.699 283.723 897.403 279.304 891.337C275.35 885.92 273.401 889.782 272.933 889.341C272.215 888.674 267.985 881.784 266.013 879.782C263.71 877.456 263.4 879.582 260.097 875.678C251.871 865.951 255.229 864.07 254.719 862.855C248.762 848.725 247.853 857.205 245.631 854.664C243.584 852.313 220.988 814.699 214.7 807.781C217.405 810.444 220.131 813.139 222.876 815.864C221.086 808.874 213.968 805.253 217.43 802.703C210.86 805.351 207.078 791.349 204.554 787.893C203.577 786.564 202.666 787.326 201.485 785.649C196.873 779.12 187.497 763.375 184.639 760.164C184.401 759.895 184.175 759.647 183.963 759.42C180.479 755.643 180.277 757.059 181.718 760.915C184.744 769.224 195.904 789.574 197.128 791.721C194.328 787.436 181.127 768.98 176.283 764.537C174.598 762.958 173.846 762.95 174.731 765.572C174.988 766.358 175.396 767.389 175.983 768.704C177.23 771.5 182.864 774.355 183.93 775.734C190.988 784.871 183.643 778.873 183.923 779.77C184.403 781.258 190.947 786.22 191.788 788.056C192.082 788.68 187.568 786.455 193.666 795.681C189.642 793.191 178.638 775.09 173.154 766.623C171.768 764.485 170.728 762.948 170.186 762.338C169.206 761.23 169.94 771.764 159.358 746.701C159.123 747.222 158.889 747.744 158.655 748.267C150.223 735.937 141.799 723.583 133.391 711.167C135.194 711.878 141.67 717.637 135.492 709.119C131.849 704.078 132.297 709.282 131.924 708.847C128.39 704.993 75.4825 622.166 64.5549 600.677C60.8574 594.349 49.5264 576.357 48.8919 574.939C48.3471 573.871 47.662 572.451 46.8864 570.782C41.3878 559.344 31.9045 534.306 29.6275 528.679C27.9189 524.729 27.4388 529.295 26.1604 525.655C24.9842 522.259 28.172 525.037 27.8758 524.009C24.5496 516.418 2.70643 450.482 3.37536 432.452C3.64243 443.348 19.8358 491.394 21.3668 489.573C21.4591 489.323 19.6278 477.366 18.312 475.128C18.9059 470.774 10.3923 458.143 9.90398 450.126C9.87978 449.225 13.3215 452.097 11.3639 438.226C11.0717 436.046 10.0078 432.348 9.07175 427.688C7.95706 422.166 6.97608 414.887 7.73295 407.076C5.99345 397.532 5.28259 361.821 12.2863 331.452C18.7399 300.969 28.6826 277.553 28.296 273.827C28.1678 273.58 22.3891 285.975 24.3732 276.881C27.1649 264.823 28.6116 277.051 34.3091 264.369C34.9863 262.067 50.0666 228.348 50.4172 227.449C52.3919 216.109 37.0363 244.033 36.9934 243.672C36.6124 242.466 44.0644 225.732 47.2624 219.617C47.9312 218.302 48.395 217.443 48.5171 217.296C48.6975 217.087 48.4054 218.43 48.0929 220.046C47.3444 223.742 46.478 228.796 50.244 221.155C51.0786 219.474 52.1535 217.154 53.5597 214.016C51.9087 216.127 50.2746 218.233 48.6582 220.337C48.4893 220.56 48.3206 220.782 48.1523 221.005C48.2598 220.745 48.3669 220.49 48.4735 220.242C52.8893 209.964 55.9887 210.418 57.4536 208.052C62.1161 200.656 62.7035 190.141 74.4033 181.231C77.4867 178.91 75.9713 184.842 76.382 184.587C80.262 181.911 78.3759 174.418 85.1018 170.994C85.6099 170.761 80.074 184.672 93.3803 162.481C92.1276 163.805 90.8786 165.13 89.6334 166.453C90.7541 162.803 103.917 140.396 105.956 137.612C111.859 129.337 109.493 138.298 114.646 129.521C107.925 132.963 124.127 106.69 125.936 109.998C124.797 104.137 141.735 84.0642 148.59 74.0402C152.91 67.6615 160.158 53.7309 161.72 51.816C163.599 49.5071 165.391 51.8566 168.937 47.7594C169.93 46.6135 177.213 32.2972 187.529 22.511C189.55 20.574 196.644 18.6975 194.791 23.4546C191.583 31.636 179.208 42.8829 181.666 44.2791C184.242 45.819 195.202 26.7472 198.856 22.1997C215.851 0.969883 209.497 15.6965 210.715 15.635C213.643 15.5412 222.089 3.35649 222.593 3.01316C224.817 1.47991 220.366 11.0629 221.434 12.044C222.874 13.239 233.784 3.56985 232.445 6.57419C230.5 10.8893 220.737 19.9338 220.367 20.7049C215.693 30.573 227.705 20.8967 231.736 18.848C232.967 18.2271 231.07 22.8064 231.804 22.0932C243.135 10.9842 228.664 15.9925 235.161 7.78317C235.699 7.10578 236.141 6.60051 236.505 6.23443C238.176 4.52736 238.281 5.59475 237.931 7.23773C237.579 9.09091 236.566 11.7868 236.727 11.6908C236.889 11.5799 238.043 10.0524 239.428 8.29058C241.609 5.49947 244.32 2.16785 245.43 1.63862C245.77 1.49399 244.213 5.3433 242.249 10.275C239.207 17.9816 235.421 28.0326 237.066 28.3277C240.133 23.3252 243.329 18.1556 246.391 13.1884C248.142 10.3649 249.785 7.69872 251.507 4.92535C253.57 5.7929 249.896 10.3325 247.088 13.6786C245.808 15.1899 244.7 16.4641 244.534 16.8877C243.667 19.0839 247.494 15.7556 249.14 15.1219C249.492 14.9717 249.753 14.9352 249.862 15.082C249.916 15.1479 249.909 15.347 249.866 15.6327C249.635 17.5125 247.753 23.4469 252.47 18.1848C252.594 18.0477 252.715 17.8932 252.837 17.7223C254.631 15.1939 256.322 9.61707 263.596 3.06844C257.902 12.7265 255.675 17.3242 255.135 19.3387C254.827 20.6247 255.341 20.6629 256.224 20.105C258.258 18.752 262.032 14.5883 262.782 14.4614C264.265 14.3413 256.833 29.551 268.179 12.6364C273.822 15.5314 269.544 14.1403 267.101 19.5211C264.637 24.9716 271.877 17.4921 265.156 26.3877C263.834 28.1324 261.783 30.7677 259.068 34.1736C260.493 34.4016 263.635 31.1132 266.673 27.4548C270.628 22.6662 274.464 17.2207 274.967 16.7365C275.697 16.0714 274.177 20.7309 275.531 19.6633C291.482 6.94759 281.554 16.4914 287.827 13.9101C288.327 13.7503 300.18 -0.556694 292.459 11.1854C285.501 21.7918 279.651 28.7428 276.105 34.0891C272.56 39.4413 271.342 43.2186 273.748 47.5993C276.761 44.7349 279.508 41.4982 281.949 38.1998C291.125 25.7769 296.985 11.3628 299.555 7.64781C304.549 0.435497 300.748 8.85893 301.786 8.28538C302.128 8.08466 306.424 1.84823 306.6 1.85625C314.756 1.48665 289.962 26.4163 282.134 38.33C281.722 38.954 281.354 39.5459 281.042 40.0964C281.621 39.6505 282.196 39.2101 282.767 38.7752C284.981 37.0191 287.022 35.5097 289.235 33.7602C287.696 35.9845 286.328 37.9679 284.788 40.1973C283.751 41.7025 282.686 43.247 281.596 44.8292C283.175 42.9763 284.378 41.59 285.299 40.5567C289.435 35.8807 288.351 37.7335 286.668 41.5192C285.34 44.5805 283.517 49.1207 284.126 52.1475C284.468 53.8113 290.71 41.2221 284.387 56.2214C290.147 49.0742 290.72 49.6846 292.899 45.9023C293.562 44.7638 294.363 43.2548 295.42 41.1529C295.897 41.5904 295.284 43.6148 293.949 46.6408C290.825 53.8239 284.046 66.0934 280.87 72.0677C296.303 53.1121 291.151 53.8372 295.029 47.4008C296.528 44.9381 299.171 41.6251 304.593 35.9453C305.424 30.0375 297.956 41.5312 298.219 40.3803C299.171 36.2204 306.775 29.8937 308.738 17.3684C309.052 15.3286 302.181 20.0015 309.006 10.7003C309.81 9.60547 316.068 5.12037 316.167 5.29278C317.109 7.25838 312.34 12.6505 312.772 13.4297C313.264 14.0393 317.573 7.27262 317.802 7.3236C319.866 8.56744 314.591 13.3463 315.796 12.9635C318.419 12.1063 339.592 -8.3367 316.191 21.5107C332.409 -5.66636 316.399 16.5649 310.064 27.3362C308.449 30.063 309.189 31.502 306.95 35.53C304.143 40.6144 299.692 45.737 298.158 48.3748C296.827 50.6796 305.543 42.3176 299.899 50.8259C298.705 52.6318 296.684 55.44 293.794 59.2395C296.14 57.2156 298.566 54.4688 300.886 51.5204C309.103 41.0384 317.259 26.4876 324.696 19.3009C343.977 0.775616 318.666 37.6297 316.326 41.8911C315.69 43.0087 319.75 40.6307 319.352 41.3987C318.914 42.2063 313.032 50.0226 308.407 56.8104C305.505 61.0694 303.078 64.9575 303.024 66.1278C302.882 69.1224 308.396 58.343 310.19 58.7057C311.428 58.876 295.256 85.4646 305.526 72.1308C307.939 68.9987 310.573 64.5256 313.139 60.1395C318.194 51.5322 323.267 42.8784 327.22 42.8373C323.064 49.0008 318.96 55.124 314.817 61.3192C309.504 69.2662 304.192 77.2459 298.914 85.2272C305.74 78.6601 312.589 72.1079 319.445 65.5773C308.979 81.4825 297.814 93.8479 289.808 110.165C319.312 77.8794 285.697 124.421 286.015 125.36C286.219 125.811 299.858 114.424 302.104 112.735C295.005 126.165 270.287 164.478 290.128 145.698C286.31 148.934 282.538 160.502 282.831 160.52C285.824 160.728 298.692 138.649 298.331 143.431C297.898 148.968 291.01 152.481 287.142 158.781C267.405 191.234 284.507 190.09 262.446 220.433C263.257 220.069 264.067 219.704 264.878 219.34C245.778 248.14 227.213 277.426 212.339 304.717C209.804 309.388 207.455 313.872 205.186 318.407C202.434 332.927 194.326 362.984 193.442 371.803C192.879 373.883 190.146 383.156 189.905 384.08C189.125 385.479 188.992 377.794 187.525 381.227C187.37 381.611 186.951 385.93 187.388 390.916C187.775 395.81 189.052 401.829 190.073 400.739C189.85 397.656 187.931 390.312 188.476 389.305C189.732 386.858 190.148 390.727 191.798 401.004C194.222 420.933 205.939 457.952 208.409 460.393C208.409 458.29 208.432 456.203 208.48 454.133C210.028 459.409 211.739 464.743 213.603 470.125ZM86.9166 155.175C87.2269 150.118 94.6163 141.466 97.5382 135.556C101.559 127.341 102.201 109.505 106.296 119.967C99.7688 131.564 93.3034 143.277 86.9166 155.175ZM0.573887 368.007C2.79253 354.947 6.8753 365.487 4.46249 375.995C4.24406 377.12 -1.86463 385.869 0.573887 368.007ZM34.5764 249.587C34.4675 249.945 30.6931 258.234 30.5217 258.486C25.392 265.143 36.7292 240.341 34.5764 249.587ZM153.34 733.261C147.898 725.441 147.852 733.717 152.721 737.63C153.034 737.883 153.704 733.79 153.34 733.261ZM149.716 727.568C149.06 719.108 133.93 711.349 141.134 720.74C141.8 721.597 149.78 728.03 149.716 727.568ZM8.9863 322.926C10.1766 324.579 6.86815 336.992 5.71781 342.57C4.24498 342.155 7.90959 328.023 8.9863 322.926ZM67.242 601.41C68.3559 601.415 54.7635 575.491 50.6142 569.01C50.1182 568.282 49.726 567.806 49.4679 567.652C49.6994 568.018 49.9852 568.526 50.3169 569.152C54.1489 576.797 66.1165 601.771 67.242 601.41ZM112.827 672.924C112.594 672.176 106.423 663.159 105.643 663.968C107.309 669.257 113.955 676.469 112.827 672.924ZM199.651 804.353C200.212 804.696 201.574 794.173 208.227 812.397C209.202 815.067 202.202 807.874 202.535 808.824C203.273 810.806 204.009 812.317 204.691 813.412C199.287 806.366 194.103 799.097 193.922 798.064C193.281 793.504 199.435 804.237 199.651 804.353ZM249.426 869.528C251.38 870.406 257.226 880.276 258.281 882.708C258.457 883.131 254.88 883.157 257.936 887.342C260.392 890.699 259.513 883.848 263.576 890.837C267.671 897.88 259.834 890.045 260.1 890.726C260.449 891.617 268.58 901.356 266.883 902.025C265.606 902.486 258.908 890.806 256.791 888.134C254.112 884.762 255.161 890.304 251.587 884.086C249.346 880.189 253.944 880.115 253.581 879.219C253.298 878.508 242.679 866.592 249.429 869.555C249.428 869.546 249.427 869.537 249.426 869.528ZM206.133 815.263C205.662 814.793 205.18 814.196 204.691 813.412C205.17 814.034 205.655 814.65 206.133 815.263ZM74.9057 178.667C71.4693 182.189 77.2884 169.172 81.3802 165.41C82.4916 165.976 75.4447 178.074 74.9057 178.667ZM213.25 820.244C219.685 831.619 213.228 824.354 206.133 815.263C208.761 817.885 211.087 816.425 213.25 820.244ZM18.312 475.128C18.2078 475.863 17.8856 476.398 17.186 476.642C17.5029 474.692 17.8848 474.428 18.312 475.128ZM28.0286 511.218C34.3217 522.367 25.8043 498.228 24.4351 498.773C23.849 499.056 27.7468 510.796 28.0286 511.218ZM159.881 743.517C159.566 742.643 173.429 751.236 157.231 736.059C162.906 746.059 155.584 736.364 155.204 736.867C154.002 738.156 166.092 753.384 167.855 757.362C172.277 758.483 161.001 746.519 159.895 743.537C159.89 743.53 159.885 743.524 159.881 743.517ZM329.193 993.009C326.273 991.826 322.261 984.659 319.307 979.973C322.228 981.151 326.245 988.319 329.193 993.009ZM280.382 2259.69C258.549 2232.73 261.136 2224.37 278.277 2252.09C278.61 2252.63 282.21 2260.96 280.382 2259.69ZM191.756 1887.19C195.942 1883.81 192.726 1897.79 189.468 1906.65C188.716 1908.64 183.909 1915.69 185.197 1906.74C188.88 1907.82 193.389 1894.71 191.756 1887.19ZM219.024 825.216C222.865 827.143 228.102 837.703 231.218 842.944C227.7 840.822 221.461 830.06 219.024 825.216ZM204.92 2147.28C202.462 2142.32 198.233 2140.05 198.481 2141.05C199.592 2145.63 206.605 2153.55 204.92 2147.28ZM198.414 793.777C199.204 792.677 208.737 804.747 206.753 807.423C205.081 804.512 197.997 794.587 198.414 793.777ZM324.263 983.76C323.498 981.418 331.22 991.077 332.726 994.546C331.433 995.035 324.769 985.291 324.263 983.76ZM175.136 2048.69C175.136 2047.19 175.123 2045.17 175.115 2042.96C175.113 2038.32 174.942 2032.36 174.109 2031.51C173.1 2030.48 173.053 2038.03 173.839 2042.97C174.151 2045.73 174.622 2047.95 175.136 2048.69ZM388.455 2653.17C387.995 2653.46 386.228 2644.55 386.544 2638.69C386.597 2637.77 386.709 2636.91 386.894 2636.19C388.006 2631.81 388.592 2634.49 388.823 2638.89C389.136 2644.59 388.689 2652.99 388.455 2653.17ZM232.226 2187.2C237.824 2199.31 231.322 2186.13 229.394 2188.16C234.709 2195.78 246.859 2211.85 240.535 2199.03C239.304 2196.54 234.542 2190.72 232.226 2187.2ZM225.677 2176.31C225.108 2176.04 223.718 2175 222.388 2174.06C220.119 2172.49 218.02 2171.28 220.66 2175.22C220.793 2175.41 220.937 2175.62 221.094 2175.84C223.556 2179.33 229.827 2182.8 225.677 2176.31ZM390.61 2578.14C393.093 2569.14 391.862 2610.16 391.041 2611.29C390.791 2611.91 390.562 2612.3 390.372 2612.53C391.106 2614.05 390.873 2621.79 388.846 2622.54C389.147 2620.27 389.262 2613.96 389.501 2613.23C389.606 2612.92 389.702 2612.69 389.797 2612.54C388.391 2609.78 390.365 2579.88 390.61 2578.14ZM387.858 2510.61C392.82 2520.19 386.841 2522.77 386.557 2521.91C382.709 2511.31 388.092 2517.85 388.267 2517.49C388.536 2516.68 385.395 2509.2 387.863 2510.64C387.861 2510.63 387.86 2510.62 387.858 2510.61ZM391.185 2564.22C391.299 2564.63 391.411 2573.22 391.308 2573.57C389.485 2580.63 389.145 2556.44 391.185 2564.22ZM287.11 918.404C290.452 924.551 284.783 920.101 282.907 915.801C282.76 915.435 284.168 912.991 287.11 918.404ZM221.269 2170.84C220.903 2169.88 213.954 2158.59 207.197 2146.23C200.368 2134.03 194.139 2120.3 193.316 2122.71C194.489 2125.27 202.163 2142.77 209.622 2155.16C216.997 2167.75 223.566 2176.68 221.269 2170.84ZM230.999 1794.36C227.554 1801.84 228.33 1792.32 231.311 1788.82C232.409 1787.54 231.87 1792.47 230.999 1794.36ZM189.296 774.846C183.593 769.494 189.445 767.547 191.382 774.123C191.458 774.381 189.518 775.054 189.296 774.846ZM204.058 1855.62C213.001 1825.91 218.961 1836.34 203.605 1872.73C203.528 1871.42 203.456 1870.1 203.39 1868.78C189.377 1912.22 201.377 1871.52 204.635 1860.68C205.785 1856.55 203.02 1859.41 204.037 1855.65C204.044 1855.64 204.051 1855.63 204.058 1855.62ZM250.682 1755.34C270.364 1734.48 240.705 1778.64 235.79 1792.76C239.185 1778.38 248.252 1761.42 234.018 1783.37C250.362 1749.01 246.103 1764.6 246.898 1763.32C247.963 1761.85 249.837 1756.24 250.682 1755.34ZM219.729 1820.71C219.308 1822.22 213.514 1832.52 212.229 1836.51C211.985 1830.14 222.403 1810.56 219.729 1820.71ZM371.91 2442.05C373.98 2442.28 375.909 2443.76 377.047 2451.06C375.539 2449.1 373.53 2444.79 371.91 2442.05ZM100.068 153.268C103.333 148.194 110.3 138.43 106.622 140.462C106.258 140.692 99.0854 152.651 100.068 153.268ZM179.621 2008.46C179.651 2007.12 182.355 1970.68 179.32 1983.11C178.143 1986.93 177.019 2020.04 179.621 2008.46ZM251.416 2209.96C249.814 2207.86 242.592 2199.01 242.042 2199.02C240.347 2199.44 249.536 2210.03 251.416 2209.96ZM117.81 128.637C118.39 128.066 127.92 112.553 126.051 113.733C122.486 115.938 115.769 130.538 117.81 128.637ZM304.923 937.052C305.792 938.235 305.1 941.018 305.361 941.454C305.992 942.455 321.429 964.378 313.53 957.326C312.213 956.136 291.828 923.421 289.255 919.076C290.594 915.849 297.417 931.133 299.866 934.297C300.303 934.855 302.574 933.893 304.906 937.048C304.912 937.049 304.917 937.05 304.923 937.052ZM382.756 2478.52C384.931 2479.06 390.834 2506.04 388.418 2506.08C386.77 2496.8 384.885 2487.61 382.756 2478.52ZM380.094 2464.81C380.038 2458.76 383.574 2472.14 383.782 2476.23C382.604 2476.53 380.132 2465.69 380.094 2464.81ZM217.127 2148.62C214.643 2145.29 218.77 2157.57 216.889 2155.4C215.662 2154.06 211.849 2145.5 209.652 2143.14C208.989 2142.54 211.542 2152.29 213.065 2154.55C215.179 2157.81 214.96 2153.59 217.137 2157.15C220.31 2162.31 223.114 2167.12 225.847 2171.74C229.546 2177.93 233.007 2183.53 236.851 2188.74C237.475 2189.58 233.835 2182.24 239.059 2189.39C239.868 2190.49 243.046 2198.28 249.209 2205.79C267.297 2218.72 271.24 2233.83 287.171 2251.78C287.21 2250.72 277.756 2235.2 277.08 2234.27C266.837 2218.81 246.259 2193.51 229.798 2169.09C228.033 2166.45 226.373 2163.91 224.839 2161.5C220.945 2155.34 221.674 2159.05 219.952 2156.37C218.608 2154.21 222.322 2155.56 217.127 2148.62ZM99.5838 156.744C103.255 155.59 107.162 146.192 110.677 140.838C107.536 141.532 103.349 151.647 99.5838 156.744ZM341.228 2345.41C340.014 2342.96 337.082 2335.03 336.082 2334.76C334.817 2334.37 339.444 2345.58 341.228 2345.41ZM386.773 1063.69C386.994 1063.9 390.829 1070.13 390.906 1070.4C392.728 1077.01 381.22 1058.3 386.773 1063.69ZM477.112 1211.49C479.971 1215.88 483.362 1220.32 482.385 1222.8C481.076 1219.78 475.537 1211.61 477.112 1211.49ZM531.748 1393.52C534.595 1393.15 531.104 1403.99 530.327 1405.84C529.423 1404.86 529.84 1393.9 531.748 1393.52ZM379.778 2438.76C382.048 2447.68 385.474 2444.78 385.146 2450.91C385.067 2451.91 377.62 2456.94 378.179 2446.45C378.254 2444.55 382.085 2450.91 379.778 2438.76ZM201.702 1878.87C202.52 1882.4 199.416 1891.71 197.733 1898.1C196.754 1896.35 200.455 1883.45 201.702 1878.87ZM137.311 102.163C142.136 99.3377 153.279 79.1543 148.752 82.9763C148.127 83.502 139.145 99.5028 137.311 102.163ZM240.392 842.57C247.181 849.17 237.04 832.874 232.109 828.981C233.742 831.195 239.916 842.091 240.392 842.57ZM534.018 1350.12C534.035 1350.18 534.059 1350.44 534.086 1350.85C534.236 1352.93 534.353 1358.45 534.272 1358.73C533.077 1362.88 532.566 1355.13 532.744 1350.94C532.853 1348.72 533.237 1347.66 534.018 1350.12ZM451.39 1161.45C453.775 1163.03 460.243 1174.54 463.71 1182.29C464.965 1185.05 465.853 1187.34 466.141 1188.66C465.104 1187.98 463.567 1186.03 461.819 1183.41C456.202 1174.98 448.353 1159.46 451.39 1161.45ZM367.403 2402.8C369.629 2409.02 371.093 2415.13 372.211 2421.11C370.58 2420.29 366.718 2403.79 367.403 2402.8ZM534.697 1377.84C534.671 1378.22 534.5 1378.58 534.467 1378.94C534.542 1378.57 534.625 1378.2 534.697 1377.84ZM304.537 2271.46C301.925 2266.58 300.468 2268.94 300.596 2269.26C302.245 2273.15 307.44 2276.96 304.537 2271.46ZM106.639 152.396C109.746 151.674 113.973 141.539 117.745 136.589C115.263 137.146 109.085 147.958 106.639 152.396ZM269.508 1731.75C276.063 1725.42 260.306 1757.8 255.688 1763.76C253.862 1763.52 268.311 1732.64 269.508 1731.75ZM227.328 816.879C228.465 815.378 219.273 805.487 220.151 808.314C220.677 810.064 226.637 817.835 227.328 816.879ZM246.603 1779.21C245.604 1782.41 240.658 1788.65 240.879 1785.72C241.163 1781.95 246.848 1778.36 246.603 1779.21ZM193.139 2087.24C192.425 2085.35 186.239 2057.69 186.212 2069.51C186.218 2077.84 189.138 2078.65 189.502 2080.51C189.234 2083.02 199.262 2126.38 193.139 2087.24ZM398.281 1582.82C393.972 1587.85 387.576 1592.81 382.473 1597.75C383.83 1594.92 395.272 1583.66 398.281 1582.82ZM256.115 859.139C255.855 857.445 231.972 820.89 243.92 842.776C244.583 843.992 257.008 864.404 256.115 859.139ZM379.778 2438.76C379.487 2437.64 379.208 2436.32 378.951 2434.78C379.307 2436.28 379.554 2437.61 379.778 2438.76ZM343.669 2340.2C345.752 2341.57 341.505 2331.76 339.471 2329.26C337.647 2329.08 343.409 2340 343.669 2340.2ZM383.331 1599.43C380.894 1602.77 374.945 1607.39 371.287 1611.07C371.084 1609.56 381.233 1599.72 383.331 1599.43ZM533.745 1415.1C531.685 1419.94 529.786 1426.07 531.112 1426.7C530.858 1426.72 530.539 1426.88 530.158 1427.19C529.821 1427.48 528.51 1432.44 527.069 1434.77C526.984 1434.91 526.9 1435.04 526.815 1435.16C524.91 1437.82 524.865 1436.86 525.765 1434.2C529.929 1424.71 539.88 1389.11 534.643 1421.49C534.393 1419.34 534.094 1417.2 533.745 1415.1ZM438.279 1133.46C437.538 1128.85 429.044 1119.48 430.152 1122.59C430.974 1124.81 439.052 1138.13 438.279 1133.46ZM519.186 1275.35C519.007 1274.12 513.232 1264.82 512.251 1265.01C514.144 1271.14 520.023 1280.8 519.186 1275.35ZM422.094 1103.62C420.852 1101.14 416.512 1099.69 416.58 1100.03C417.204 1102.99 423.198 1108.39 422.094 1103.62ZM381.823 2418.1C381.519 2414.22 375.753 2403.38 373.074 2401.54C373.265 2400.96 373.296 2399.56 373.045 2397.09C373.047 2397.09 373.049 2397.1 373.052 2397.11C374.025 2393.16 336.058 2303.65 358.566 2364.86C359.225 2366.79 359.783 2363.55 362.606 2371.38C362.789 2371.9 361.591 2372.67 362.149 2374.27C363.527 2377.92 369.883 2397.69 372.218 2401.3C371.984 2401.41 371.838 2401.75 371.809 2402.36C371.599 2407.8 382.098 2421.05 381.823 2418.1ZM527.501 1294.18C527.283 1292.17 524.319 1286.29 522.893 1286.13C523.677 1289.4 528.079 1298.96 527.501 1294.18ZM259.583 855.209C257.664 850.501 248.997 840.933 250.298 844.701C251.085 846.997 261.823 860.668 259.583 855.209ZM496.784 1231.69C508.1 1256.06 499.919 1237.3 503.45 1240.08C501.224 1237.24 499.036 1234.5 496.784 1231.69ZM400.659 2535.31C400.688 2531.19 404.716 2535.65 403.157 2540.34C402.661 2541.8 400.646 2537.59 400.659 2535.31ZM388.608 2713.32C391.426 2711.79 389.014 2718.59 387.138 2720.66C386.491 2721.37 385.952 2721.42 385.799 2720.21C385.767 2719.98 385.751 2719.69 385.751 2719.35C385.807 2718.98 388.443 2713.48 388.608 2713.32ZM405.543 2591.02C403.382 2588.22 403.158 2586.42 403.56 2578.55C404.32 2590.18 406.138 2579.35 405.543 2591.02ZM531.35 1426.73C531.256 1426.73 531.186 1426.73 531.112 1426.7C531.2 1426.69 531.276 1426.7 531.35 1426.73ZM407.289 1081.31C406.914 1077.31 401.431 1068.98 401.481 1072.48C401.503 1072.83 405.35 1080.77 407.289 1081.31ZM373.074 2401.54C372.905 2402.05 372.633 2401.91 372.218 2401.3C372.438 2401.19 372.716 2401.29 373.074 2401.54ZM437.108 1125.84C435.763 1126.25 443.283 1139.38 443.727 1139.81C450.29 1145.95 440.442 1131.02 437.108 1125.84ZM204.69 769.565C204.125 768.976 204.06 775.217 206.971 777.093C209.217 778.53 206.792 771.74 204.69 769.565ZM405.774 2617.81C405.576 2622.18 405.198 2628.28 403.449 2629.31C403.918 2626.44 404.566 2617.65 405.774 2617.81ZM392.573 2708.13C392.03 2703.12 394.613 2693.11 396.272 2686.48C398.927 2686.98 393.365 2703.84 392.573 2708.13ZM384.333 2429.81C384.358 2429.43 381.919 2418.64 380.689 2420.59C378.931 2423.43 384.298 2433.04 384.333 2429.81ZM216.343 790.376C220.364 794.248 216.412 781.736 210.863 778.525C207.988 776.83 215.713 789.794 216.343 790.376ZM392.46 1053.71C387.739 1048.22 395.845 1064.12 398.67 1065.19C397.034 1062.36 394.14 1055.66 392.46 1053.71ZM515.632 1256.95C510.941 1235.99 507.538 1250.44 509.962 1253.35C510.323 1253.79 515.754 1257.46 515.632 1256.95ZM177.996 60.0088C179.241 56.8823 170.186 65.5408 170.756 67.7993C171.098 69.2227 177.212 61.9778 177.996 60.0088ZM486.514 1500.66C487.039 1500 487.561 1499.35 488.073 1498.7C487.746 1499.23 487.246 1499.88 486.514 1500.66ZM362.97 995.378C365.478 1012.71 369.327 1008.22 370.056 1009.39C371.626 1011.95 373.715 1018.82 377.06 1023.37C372.849 1018.41 368.665 1013.5 364.439 1008.53C366.806 1013.09 388.533 1051.64 389.984 1051.73C392.134 1051.92 384.184 1040.58 384.077 1040.14C383.94 1039.54 386.734 1035.14 386.181 1033.95C385.315 1032.05 365.231 1000.96 362.97 995.378ZM494.23 1218.11C495.453 1221.47 494.271 1223.22 495.433 1224.41C495.828 1224.81 497.442 1224.03 498.728 1225.42C497.268 1223.03 495.769 1220.6 494.23 1218.11ZM341.818 975.176C341.174 970.209 351.559 987.555 351.702 988.228C352.356 991.93 342.344 979.226 341.818 975.176ZM434.433 1118.55C434.18 1117.89 426.588 1104.51 425.604 1105.23C427.046 1109.23 437.659 1126.72 434.433 1118.55ZM499.934 1227.38C502.27 1232.09 505.161 1241.43 507.028 1239.2C507.024 1239.19 507.021 1239.19 507.017 1239.18C504.671 1235.21 502.37 1231.39 499.934 1227.38ZM231.452 802.749C229.424 791.993 227.539 798.928 231.389 807.18C234.51 808.385 231.791 804.513 231.452 802.749ZM216.071 773.971C215.148 771.204 198.235 747.378 198.842 752.375C199.014 754.094 210.045 766.95 210.334 767.665C210.799 768.779 205.707 765.676 211.137 772.912C211.575 772.035 216.385 774.905 216.071 773.971ZM229.085 794.263C226.154 784.004 219.934 785.526 224.115 791.813C225.755 794.286 229.503 795.735 229.085 794.263ZM251.516 828.76C249.986 825.441 245.301 816.928 239.947 812.518C244.762 820.033 249.531 827.48 254.379 835.049C255.897 835.282 252.859 831.676 251.502 828.74C251.507 828.747 251.511 828.754 251.516 828.76ZM391.865 2750.45C393.855 2749.21 393.567 2750.64 392.426 2752.61C391.306 2754.58 389.049 2757.24 388.691 2757.32C386.602 2757.6 390.236 2751.46 391.865 2750.45ZM258.867 39.097C260.677 37.6992 263.403 37.7065 265.231 33.0632C261.062 36.1243 256.879 39.2154 252.665 42.3638C253.579 47.6652 256.874 40.6329 258.867 39.097ZM281.013 31.6309C280.689 32.2446 287.095 32.422 280.251 37.0054C279.955 37.1978 279.633 37.3993 279.283 37.6108C278.026 38.3735 277.898 37.5355 278.497 35.7718C280.685 29.493 291.813 11.8736 296.175 9.22944C293.299 15.3156 283.849 26.2999 281.013 31.6309ZM334.786 0.00288357C335.416 -0.121731 328.835 9.88797 327.717 10.9109C321.893 15.9788 331.753 -0.24812 334.786 0.00288357ZM310.946 31.0072C315.267 26.8699 308.352 37.8762 305.576 40.6896C304.512 40.3146 310.28 31.6562 310.946 31.0072ZM493.945 2714.3C499.339 2708.34 492.226 2700.58 491.708 2711.27C491.678 2711.79 493.692 2714.54 493.945 2714.3ZM332.566 12.838C328.305 16.7699 335.189 6.05904 337.819 3.71709C338.925 4.00925 333.242 12.1625 332.566 12.838ZM504.212 2711.51C508.934 2702.83 498.848 2704.27 498.264 2705.28C495.936 2709.63 495.803 2726.42 495.718 2729.97C500.4 2705.63 501.853 2715.53 504.212 2711.51ZM505.451 2668.59C505.448 2660.15 500.942 2681.12 502.816 2685.63C503.365 2681.46 505.49 2670.97 505.451 2668.59ZM512.442 2618.44C513.001 2614.01 514.131 2600.71 512.625 2598.49C512.874 2603.36 511.001 2616.52 512.442 2618.44ZM517.281 2608.46C519.488 2601.49 513.565 2599.71 515.161 2607.79C515.222 2608.11 517.161 2608.72 517.281 2608.46ZM519.371 2568.95C521.601 2564.23 515.64 2559.23 515.747 2566.66C515.782 2568.88 519.113 2569.45 519.371 2568.95ZM516.62 2701.85C518.881 2695.14 516.284 2685.65 513.306 2700.16C513.622 2694.92 513.837 2689.72 513.967 2684.56C508.724 2703.11 514.325 2702.75 513.059 2708.24C511.138 2715.91 506.61 2714.25 505.501 2712.43C507.069 2718.64 501.278 2742.5 496.651 2757.07C496.294 2758.26 495.953 2759.4 495.618 2760.51C496.09 2759.45 496.571 2758.36 497.072 2757.21C502.539 2745.12 509.823 2725.68 513.028 2713.49C514.073 2709.68 513.552 2705.65 514.301 2702.44C515.503 2697.24 516.483 2702.22 516.615 2701.88C516.617 2701.87 516.618 2701.86 516.62 2701.85ZM516.04 2516.98C517.23 2503.14 512.453 2512.34 514.245 2519.85C514.358 2520.17 516.011 2517.32 516.04 2516.98ZM355.494 11.6009C345.369 20.909 349.063 10.3046 332.913 41.2089C338.639 27.2344 331.366 39.1035 331.892 35.971C332.365 33.4053 338.052 27.0368 333.382 29.7487C338.915 25.8969 356.229 1.75636 352.804 7.22264C352.797 7.23004 352.79 7.23727 352.783 7.24434C352.943 7.16621 353.237 7.41357 353.507 7.89302C353.784 8.36487 354.072 9.03584 354.547 9.47345C355.009 9.92639 355.663 10.1252 355.948 10.4118C356.24 10.6919 356.145 11.098 355.494 11.6009ZM527.57 2618.99C534.761 2614.67 523.714 2612.49 529.722 2603.64C521.656 2591.48 528.73 2636.83 520.823 2641.82C524.744 2593.24 511.506 2673.45 524.559 2640.24C523.612 2644.75 522.949 2648.03 522.54 2650.37C520.339 2662.74 525.329 2650.33 526.135 2654.08C527.221 2658.88 523.785 2674.96 526.441 2674.44C526.442 2674.44 526.443 2674.43 526.444 2674.42C527.289 2666.53 527.958 2658.68 528.482 2650.88C528.619 2648.85 528.752 2646.74 528.87 2644.69C522.498 2653.8 525.759 2634.06 530.623 2627.51C529.623 2624.63 528.604 2621.83 527.57 2618.99ZM517.81 2673.81C518.165 2672.84 519.607 2651.47 518.273 2652.79C517.507 2655.45 514.659 2685.81 517.81 2673.81ZM496.478 2768.51C497.648 2765.31 499.077 2761.68 500.288 2758.28C502.112 2753.19 503.655 2747.88 503.181 2745.01C502.012 2748.86 500.192 2753.62 498.796 2757.79C497.423 2761.91 496.28 2765.97 496.478 2768.51ZM491.95 2379.35C487.433 2370.7 495.677 2399.1 495.136 2390.33C495.125 2389.89 492.188 2379.77 491.95 2379.35ZM527.06 2596.91C529.263 2587.08 522.429 2591.72 524.131 2598.98C524.231 2599.41 526.958 2597.37 527.06 2596.91ZM349.178 21.3304C350.289 22.5554 335.25 41.4624 332.794 45.0018C332.935 42.0517 348.123 19.4164 349.178 21.3304ZM495.98 2786.39C503.171 2777.93 506.328 2767.91 507.708 2760.75C509.141 2753.41 509.3 2746.96 509.712 2745.85C510.542 2743.62 511.992 2747.95 512.212 2747.45C512.89 2746.42 519.314 2721.32 519.204 2720.05C519.259 2719.16 514.636 2722.82 514.658 2717.45C514.71 2724.12 508.911 2745.99 504.078 2759.54C501.612 2766.86 499.041 2773.52 498.815 2774.47C498.591 2775.52 500.805 2772.67 501.685 2772.39C502.433 2772.22 502.725 2773.85 495.995 2786.36C495.99 2786.37 495.985 2786.38 495.98 2786.39ZM512.176 2740.29C508.959 2746.01 513.629 2728.7 515.09 2724.6C518.649 2715.48 512.752 2739.61 512.176 2740.29ZM523.135 2698.6C523.92 2696.65 526.927 2678.85 525.33 2677.15C522.121 2685.17 521.577 2702.93 523.135 2698.6ZM526.594 2504.97C525.875 2500.51 525.5 2488 523.88 2487.5C524.783 2491.95 525.038 2504.45 526.594 2504.97ZM312.13 96.412C317.04 91.5631 308.48 104.77 305.375 108.21C304.377 107.878 311.697 96.8369 312.13 96.412ZM541.491 2595.35C542.458 2592.64 539.587 2537.64 537.693 2530.02C537.724 2537.66 539.369 2591.96 539.434 2594.46C539.596 2595.18 541.416 2595.7 541.491 2595.35ZM530.244 2716.57C531.276 2722.38 527.829 2725.31 527.647 2725.94C525.822 2732.49 522.491 2746.19 521.261 2742.62C525.614 2731.33 528.16 2705.09 530.244 2716.57ZM536.094 2499.87C532.923 2481.34 535.048 2517.4 536.701 2512.44C536.826 2512.14 536.443 2501.8 536.094 2499.87ZM542.066 2601.51C543.35 2604.42 542.234 2632.32 540.062 2651.88C539.194 2660.32 538.277 2667.23 537.962 2669.95C536.177 2663.56 537.518 2658.49 538.583 2651.75C538.922 2649.62 539.237 2647.22 539.391 2644.64C539.556 2641.76 538.124 2642.42 538.145 2642.11C538.43 2637.15 539.757 2640.97 539.989 2637.9C540.413 2635.9 539.824 2595.68 542.066 2601.51ZM531.087 2719.94C532.065 2723.51 522.384 2760.19 521.378 2760.95C515.849 2771.03 530.751 2722.99 531.087 2719.94ZM545.071 2596.48C548.983 2602.49 545.431 2630 544.149 2611.09C544.033 2609.27 545.88 2601.74 545.071 2596.48ZM539.975 2501.42C540.044 2500.48 538.109 2480.8 536.78 2480.65C536.895 2483.54 540.052 2512.06 539.975 2501.42ZM545.251 2511.12C545.165 2510.65 543.342 2515.5 542.614 2506.27C542.536 2505.5 545.086 2503.76 542.595 2492.29C542.081 2489.94 539.829 2486.57 539.758 2486.85C537.582 2499.35 548.996 2534.78 545.251 2511.12ZM533.035 2721.08C534.567 2719.33 536.764 2724.86 534.077 2728.82C532.915 2730.5 531.851 2726.57 533.035 2721.08ZM530.597 2439.34C535.091 2450.16 527.515 2414.79 526.35 2413.23C525.515 2414.63 530.259 2438.23 530.597 2439.34ZM315.867 118.324C315.872 118.317 315.876 118.311 315.881 118.304C310.651 125.082 312.282 119.766 312.003 120.077C299.718 133.594 305.572 131.808 304.337 134.397C301.744 139.916 298.444 136.548 294.294 146.077C301.435 130.527 293.798 143.878 292.16 143.372C285.545 141.162 307.419 126.515 311.078 118.774C311.584 117.694 304.908 123.62 306.114 120.795C310.046 111.574 335.925 92.4501 315.867 118.324ZM533.543 2732.23C534.605 2737.82 521.912 2771.96 523.238 2762.22C523.701 2761.21 532.759 2724.64 533.543 2732.23ZM668.757 1481.72C666.755 1491.67 676.96 1470.7 676.8 1466.03C676.869 1463.84 669.724 1477.46 668.757 1481.72ZM694.205 1328.78C692.798 1317.23 683.786 1305.64 686.892 1320.12C687.236 1321.64 693.365 1330.19 694.205 1328.78ZM388.249 1842.3C394.094 1836.51 389.718 1834.74 387.112 1839.89C386.196 1841.72 388.065 1842.48 388.249 1842.3ZM603.01 1594.45C603.81 1593.78 611.169 1584.17 610.029 1583.82C606.759 1586.99 597.862 1598.9 603.01 1594.45ZM387.718 1844.82C389.076 1840.28 382.357 1845.9 382.86 1852.55C383.881 1849.79 387.577 1845.28 387.718 1844.82ZM555.392 2575.53C553.39 2570.51 553.509 2556.23 552.683 2548.04C555.206 2547 554.928 2569.69 555.392 2575.53ZM693.182 1374.72C691.568 1364.24 689.734 1386.62 692.025 1384.7C692.194 1384.41 693.28 1375.12 693.182 1374.72ZM345.349 2057.12C344.153 2056.15 343.848 2057.8 344.196 2059.49C344.538 2061.18 345.519 2062.85 346.098 2061C346.092 2060.78 345.439 2057.18 345.349 2057.12ZM378.061 2108.91C375.599 2104.95 365.116 2091.2 367.968 2097.45C368.317 2098.34 376.684 2109.39 378.061 2108.91ZM305.549 135.826C309.032 135.291 300.686 146.444 299.203 147.841C298.604 148.386 301.022 136.497 305.549 135.826ZM413.793 1799.07C415.677 1795.55 421.98 1787.52 421.953 1785.28C419.345 1789.32 410.804 1798.66 413.793 1799.07ZM688.937 1424.2C693.418 1414.95 694.65 1398.42 690.612 1402.17C688.85 1420.17 694.536 1400.24 688.937 1424.2ZM379.144 1869.9C380.685 1866.97 378.542 1863.22 378.237 1863.49C375.306 1866.09 376.557 1872.35 379.144 1869.9ZM531.206 1672.77C532.404 1673.72 541.055 1664.35 539.162 1664.84C538.528 1665.02 530.225 1672.04 531.206 1672.77ZM530.995 2398.97C530.681 2392.59 536.983 2410.62 536.723 2416.52C535.189 2419.71 531.117 2399.75 530.995 2398.97ZM351.185 1950.79C353.217 1951.63 355.231 1936.65 352.139 1942.04C351.339 1943.39 350.468 1950.49 351.185 1950.79ZM355.75 2067.67C351.937 2064.2 355.783 2073.88 360.764 2081.29C363.623 2085.62 366.518 2088.75 365.039 2084.4C364.961 2084.15 363.852 2082.27 362.607 2080.05C359.567 2074.84 356.066 2067.97 355.75 2067.67ZM399.058 2130.01C397.915 2128.04 404.517 2124.3 408.036 2133.73C408.496 2134.95 403.36 2131.46 403.624 2132.56C403.76 2133.1 415.59 2150.67 416.325 2151.46C417.11 2152.2 418.312 2149.77 419.165 2150.49C420.131 2151.27 426.242 2163.33 430.253 2169.2C437.832 2180.24 440.258 2180.45 440.885 2181.35C442.687 2184.04 444.509 2189.38 448.05 2194.96C452.075 2201.29 456.575 2208.45 461.148 2216.12C477.079 2242.58 492.348 2274.12 497.225 2293.94C489.6 2272.02 478.291 2252.77 466.54 2232.48C471.176 2235.15 461.087 2221.66 458.226 2217.83C457.359 2216.63 457.218 2216.34 458.471 2217.68C459.288 2218.56 460.702 2220.14 462.884 2222.67C462.176 2221.66 460.96 2219.75 459.336 2217.18C446.669 2195 402.368 2134.86 399.073 2130.03C399.068 2130.02 399.063 2130.01 399.058 2130.01ZM688.184 1281.35C692.752 1287.57 681.829 1251.86 677.752 1250.69C679.075 1254.82 687.866 1280.22 688.184 1281.35ZM694.897 1450.71C694.356 1454.29 698.74 1459.22 690.225 1476.88C690.22 1476.9 690.214 1476.92 690.208 1476.93C687.666 1482.02 688.616 1475.55 687.865 1476.39C687.633 1476.76 679.319 1492.16 683.879 1478.52C690.27 1457.51 688.157 1477.79 691.795 1466.54C692.437 1465.16 695.401 1442.84 694.357 1444C694.278 1444.11 693.295 1450.73 692.764 1451.74C690.828 1455.55 689.821 1453.18 689.603 1453.73C689.426 1455.59 680.964 1489.74 676.395 1493.27C676.174 1494.93 691.827 1440.15 691.344 1437.85C691.865 1436.54 695.993 1437.98 696.7 1436.63C697.263 1435.9 699.299 1413.11 699.802 1410.33C700.013 1409.5 700.207 1408.87 700.36 1408.42C698.769 1411.58 700.655 1391.66 701.993 1392.4C702.633 1392.75 701.155 1406.5 700.928 1407.01C700.861 1407.22 700.781 1407.4 700.721 1407.58C703.453 1404.69 695.033 1452.54 699.087 1442.75C697.173 1457.02 696.126 1439.99 694.897 1450.71ZM673.79 1515.64C674.017 1514.15 674.229 1512.68 674.444 1511.18C664.886 1533.72 649.234 1554.64 634.914 1574.31C631.263 1579.29 637.725 1575.23 632.291 1581.27C627.924 1586.11 621.56 1590.02 623.224 1586.95C623.63 1586.24 632.863 1576.91 636.591 1571.34C647.564 1554.88 642.622 1557.47 643.251 1556.52C643.916 1555.46 652.28 1545.74 655.877 1539.49C663.724 1525.82 666.867 1517.99 675.864 1500.47C677.174 1497.86 678.579 1495.06 680.109 1491.94C678.583 1497.13 678.276 1499.68 678.261 1501.53C678.207 1504.96 679.283 1505.92 673.79 1515.64ZM350.695 2016.74C352.161 2017.33 350.598 2026.89 350.829 2030.44C349.305 2029.87 350.774 2020.21 350.695 2016.74ZM229.818 512.475C226.06 510.964 236.874 531.049 235.662 524.803C235.34 523.384 231.088 514.859 229.818 512.475ZM287.34 607.252C289.794 609.746 283.684 597.203 282.066 598.212C281.595 598.615 286.986 606.878 287.34 607.252ZM507.103 1711.52C506.671 1712.03 499.442 1718.14 499.165 1718.24C492.768 1720.69 516.497 1700.26 507.103 1711.52ZM368.923 724.379C360.789 715.117 380.673 746.144 376.142 735.647C375.909 735.117 369.294 724.793 368.923 724.379ZM397.78 766.79C396.097 764.421 389.483 753.061 388.771 753.351C387.607 753.796 395.24 766.734 397.78 766.79ZM386.769 1875.7C389.783 1875.69 381.948 1888.47 380.328 1893.52C377.264 1893.59 384.974 1880.5 386.769 1875.7ZM432.23 1797.99C402.437 1848.78 403.727 1834.34 433.127 1794.36C434.626 1795.33 434.229 1794.89 432.23 1797.99ZM393.914 1864.19C393.253 1861.39 396.753 1855.33 398.997 1851.22C399.706 1852.52 395.062 1860.94 393.914 1864.19ZM221.555 488.058C225.128 490.549 230.009 506.057 227.908 503.968C227.322 503.499 219.818 487.468 221.555 488.058ZM504.426 1717.34C507.403 1718.22 491.568 1731.84 490.142 1732.43C483.876 1735.1 503.447 1719.05 504.426 1717.34ZM363.423 1953.78C364.907 1957.1 362.342 1965.24 361.534 1970.75C360.077 1967.97 362.457 1958.28 363.423 1953.78ZM374.733 1917.01C374.688 1917.33 372.309 1924.23 372.14 1924.53C368.35 1929.67 375.129 1910.04 374.733 1917.01ZM339.293 120.238C339.188 120.507 334.92 126.428 334.718 126.583C329.363 130.738 342.106 113.085 339.293 120.238Z" fill="#FF5900"/>
</svg>
